PathFileType	4	(X/Y/Z)	/home/abdul/Desktop/myosuite/custom_workspace/IK/output/S4_12_1.trc
DataRate	CameraRate	NumFrames	NumMarkers	Units	OrigDataRate	OrigDataStartFrame	OrigNumFrames
200.0	200.0	67	3	mm	200.0	707	1130
Frame#	Time	V_Shoulder			V_Elbow			V_Wrist		
		X1	Y1	Z1	X2	Y2	Z2	X3	Y3	Z3

707	3.53	-86.11464099398184	567.0900617270648	272.37557960908686	-139.93180811384246	415.13686605637133	19.7956643738784	-84.90303404080923	202.77000906955374	63.38204052669598
708	3.535	-86.08380957157924	567.0444017786552	272.38635462318297	-139.93246701665046	415.0772730299175	19.78751664096813	-84.90950731524995	202.690320366386	63.35390352335419
709	3.54	-86.05325335071451	567.0004601030959	272.3968584770509	-139.9338478749611	415.0201486991342	19.778800902683223	-84.91793631145381	202.6131776754872	63.323905682203716
710	3.545	-86.02298398147451	566.9582395946272	272.4070892879608	-139.93585910531687	414.9654497609155	19.76957317336059	-84.92829647282704	202.53847436755956	63.29189189210365
711	3.55	-85.99301378075099	566.9177418554397	272.4170457725398	-139.93840760485634	414.91312449240286	19.75989419419896	-84.94055578534709	202.46609461633886	63.25771120412031
712	3.555	-85.9633557061591	566.8789671509832	272.4267272292047	-139.9413988772176	414.8631128991948	19.7498291502185	-84.95467462450627	202.39591372195366	63.22121684588133
713	3.56	-85.93402332630313	566.8419143679001	272.4361335199826	-139.944737160495	414.8153468984083	19.73944737088792	-84.97060562196424	202.32779848153166	63.182266258456984
714	3.565	-85.90503078743528	566.8065809745871	272.44526505181915	-139.9483255571561	414.7697505367415	19.72882201520063	-84.98829355290924	202.26160760644683	63.14072115651858
715	3.57	-85.87639277656751	566.7729629843805	272.4541227574707	-139.95206616589934	414.7262402435649	19.71802974198045	-85.00767524512672	202.1971921854689	63.096447612410756
716	3.575	-85.84812448110954	566.7410549213573	272.4627080760751	-139.95586021550616	414.68472511895106	19.707150366195993	-85.02867951077201	202.1343961929419	63.04931616466017
717	3.58	-85.82024154511994	566.7108497887353	272.47102293349025	-139.95960820081422	414.645107256414	19.696266502062258	-85.05122710183826	202.0730570409833	62.999201951327535
718	3.585	-85.79276002227179	566.6823390398589	272.47906972248734	-139.96321002101072	414.60728209999996	19.68546319370951	-85.07523069030483	202.01300617455726	62.945984868493476
719	3.59	-85.76569632564576	566.6555125517526	272.4868512828827	-139.96656512051126	414.57113883522686	19.674827534203594	-85.1005948739411	201.95406970813752	62.889549754051586
720	3.595	-85.73906717447892	566.6303586012233	272.49437088168605	-139.96957263275252	414.53656081322856	19.66444827371024	-85.12721620872867	201.89606910253605	62.82978659686536
721	3.6	-85.71288953800894	566.6068638434966	272.50163219334183	-139.97213152728364	414.5034260073161	19.654415417608305	-85.15498326884877	201.83882188033613	62.76659077122824
722	3.605	-85.68718057656683	566.5850132933771	272.5086392801329	-139.9741407605889	414.471607501025	19.64481981537459	-85.18377673516201	201.78214237822831	62.69986329644951
723	3.61	-85.66195758008291	566.5647903089198	272.515396572815	-139.97549943111503	414.4409740065714	19.635752741085547	-85.21346951308364	201.72584253441352	62.629511121272685
724	3.615	-85.6372379041833	566.5461765776149	272.52190885154386	-139.9761069390084	414.41139041250244	19.62730546640969	-85.24392688072886	201.66973270909898	62.55544743271733
725	3.62	-85.61303890406451	566.5291521050875	272.5281812271538	-139.97586315108853	414.3827183591865	19.619568826997885	-85.27500666816921	201.6136225359818	62.47759198882069
726	3.625	-85.58937786634546	566.5136952063259	272.53421912284443	-139.974668571598	414.3548168406543	19.612632783217443	-85.30655946860132	201.5573218024821	62.39587147464181
727	3.63	-85.56627193910573	566.4997824994613	272.5400282563228	-139.97242451927107	414.3275428311733	19.606585976219375	-85.33842888218449	201.50064135636154	62.310219880777666
728	3.635	-85.54373806032834	566.4873889021283	272.54561462245204	-139.96903331125847	414.3007519348166	19.6015152803756	-85.37045179325162	201.4433940362371	62.22057890352883
729	3.64	-85.52179288497469	566.4764876304521	272.5509844764476	-139.96439845442893	414.27429905616503	19.597505353174004	-85.40245868154027	201.38539562338053	62.1268983657407
730	3.645	-85.50045271092695	566.4670502007156	272.55614431766224	-139.95842484454548	414.2480390901742	19.594638183713062	-85.4342739680246	201.32646581207703	62.02913665723528
731	3.65	-85.47973340404049	566.4590464337722	272.56110087399696	-139.9510189737826	414.22182762913144	19.59299264099372	-85.46571639585757	201.266429195704	61.927261193638415
732	3.655	-85.4596503225559	566.4524444622866	272.5658610869711	-139.94208914700954	414.1955216845329	19.59264402326329	-85.4965994468518	201.205116265584	61.821248892296595
733	3.66	-85.44021824112576	566.4472107408939	272.57043209748286	-139.93154570722	414.16898042161665	19.593663609723798	-85.52673179384047	201.1423644195632	61.711086663867185
734	3.665	-85.42145127471595	566.4433100593836	272.5748212322888	-139.91930127043386	414.14206590420855	19.596118215974553	-85.55591778916444	201.07801897716945	61.596771918055
735	3.67	-85.40336280264569	566.4407055590267	272.5790359912277	-139.90527097033834	414.114643847459	19.600069754615003	-85.58395798942891	201.01193419811108	61.47831308185625
736	3.675	-85.38596539303364	566.439358752179	272.58308403521335	-139.88937271287074	414.0865843759824	19.605574802488427	-85.6106497165625	200.943974300791	61.35573012855883
737	3.68	-85.3692707279195	566.4392295453014	272.5869731750162	-139.87152744087643	414.0577627848477	19.612684176099417	-85.6357876550938	200.87401447742945	61.229055115633514
738	3.685	-85.35328952933128	566.4402762655553	272.59071136085487	-139.8516594089007	414.02806030081285	19.62144251678704	-85.65916448543544	200.80194190231234	61.09833272953577
739	3.69	-85.33803148657057	566.4424556911403	272.59430667281316	-139.8296964680969	413.99736484115186	19.6318878872813	-85.68057155283401	200.7276567296138	60.963620835320825
740	3.695	-85.32350518498554	566.445723085546	272.597767312101	-139.80557036115164	413.9655717673778	19.644051381311872	-85.69979957150488	200.65107307717625	60.82499102885607
741	3.7	-85.3097180365009	566.4500322359104	272.6011015931703	-139.7792170270442	413.93258463113295	19.657956747974737	-85.71663936332745	200.57211999257427	60.68252918929491
742	3.705	-85.2966762121723	566.4553354956711	272.60431793670006	-139.75057691537074	413.8983159094902	19.67362003259366	-85.73088263032523	200.49074239773972	60.536336029354274
743	3.71	-85.28438457702778	566.4615838317121	272.6074248634608	-139.71959530987613	413.8626877268883	19.69104923583909	-85.74232276000126	200.40690200837957	60.38652764081535
744	3.715	-85.27284662745613	566.4687268762099	272.61043098906674	-139.68622266074618	413.82563256090884	19.71024399288596	-85.75075566243842	200.3205782243835	60.23323603254314
745	3.72	-85.26206443139617	566.4767129833795	272.61334501962455	-139.65041492512245	413.7870939290971	19.731195274404342	-85.75598063791267	200.23176898739064	60.07660965819667
746	3.725	-85.25203857157514	566.4854892913334	272.6161757482817	-139.6121339152096	413.74702705402945	19.753885111181216	-85.7578012736003	200.1404916016648	59.916813930678245
747	3.73	-85.24276809203734	566.4950017892503	272.61893205268075	-139.57134765325438	413.7053995038364	19.77828634416844	-85.75602636779242	200.0467835144184	59.75403172024781
748	3.735	-85.23425044819699	566.5051953900603	272.6216228933181	-139.5280307325834	413.662191805408	19.804362401739937	-85.75047087986057	199.95070305172527	59.588463833109046
749	3.74	-85.22648146064004	566.5160140088342	272.62425731280905	-139.4821646837962	413.6173980275295	19.83206710591982	-85.74095690404717	199.85233010617242	59.42032946715743
750	3.745	-85.21945527289076	566.5274006470642	272.6268444360542	-139.43373834512047	413.57102633122935	19.86134450931256	-85.72731466498463	199.75176677242484	59.24986664146982
751	3.75	-85.2131643133494	566.539297483008	272.6293934713026	-139.38274823584857	413.5230994846601	19.892128764425216	-85.70938353267879	199.64913792691172	59.07733259601027
752	3.755	-85.20759926159526	566.5516459682535	272.6319137121017	-139.32919893168997	413.4736553398862	19.924344027020467	-85.68701305452495	199.54459174788923	58.90300415793078
753	3.76	-85.20274901923936	566.5643869306443	272.63441454012417	-139.27310344078984	413.42274726900894	19.95790439507675	-85.66006400176138	199.4383001721988	58.727178070758946
754	3.765	-85.19860068549787	566.5774606836876	272.6369054288541	-139.21448357908628	413.3704445571303	19.992713884858482	-85.62840942760452	199.33045928511513	58.55017128269029
755	3.77	-85.19513953764543	566.5908071425416	272.639395948117	-139.1533703436029	413.31683274973716	20.028666445514425	-85.5919357341543	199.2212896397719	58.372321190141655
756	3.775	-85.19234901649395	566.6043659466559	272.6418957694284	-139.08980428220258	413.2620139521782	20.06564601352601	-85.55054374500708	199.1110365027604	58.19398583267693
757	3.78	-85.19021071702862	566.6180765891057	272.6444146721363	-139.02383585826328	413.2061070790074	20.10352660821964	-85.50414978036885	198.9999700226236	58.01554403538882
758	3.785	-85.18870438431912	566.6318785526365	272.64696255032584	-138.95552580867556	413.14924805107887	20.14217246943797	-85.45268673132372	198.88838531810956	57.837395494811716
759	3.79	-85.18780791480866	566.645711452397	272.6495494204517	-138.88494549350958	413.0915899384046	20.18143823833472	-85.39610512978145	198.7766024832107	57.65996080445414
760	3.795	-85.18749736306899	566.6595151853002	272.65218542965744	-138.81217723565052	413.0333030469201	20.221169182116466	-85.33437421050591	198.66496650619294	57.48368141607507
761	3.8	-85.18774695409394	566.6732300859236	272.65488086473715	-138.73731464866324	412.97457494744856	20.26120146340342	-85.26748296151295	198.55384710001823	57.309019532889415
762	3.805	-85.18852910118818	566.6867970888078	272.65764616169037	-138.66046295111374	412.91561044531306	20.301362454719687	-85.19544115902225	198.44363844177843	57.13645793097474
763	3.81	-85.18981442949216	566.7001578969777	272.66049191581357	-138.58173926555298	412.8566314892137	20.341471098452814	-85.11828038305482	198.33475881899446	56.96649970526619
764	3.815	-85.19157180516777	566.7132551564628	272.66342889226956	-138.50127290035147	412.79787701816485	20.381338312443347	-85.03605500968499	198.22765018088643	56.79966793666902
765	3.82	-85.19376837025315	566.7260326365489	272.66646803706846	-138.41920561256939	412.73960274547676	20.4207674411781	-84.94884317588581	198.1227775929906	56.63650527699118
766	3.825	-85.19636958317845	566.7384354154444	272.66962048839	-138.3356918500481	412.6820808789627	20.459554752367342	-84.85674771284879	198.02062859378822	56.47757344860057
767	3.83	-85.1993392649178	566.7504100709987	272.67289758817026	-138.25089897092286	412.6255997767598	20.497489978486314	-84.75989704361301	197.921712452314	56.32345265594476
768	3.835	-85.20263965073647	566.761904876057	272.67631089387214	-138.16500743877796	412.5704635383671	20.534356902657287	-84.65844604080863	197.82655932603376	56.174740906334286
769	3.84	-85.20623144747536	566.7728699979922	272.6798721903527	-138.07821099169797	412.516991530724	20.569933988039963	-84.55257684030161	197.7357193186146	56.03205323768474
770	3.845	-85.21007389629852	566.7832577018985	272.68359350173614	-137.99071678350955	412.4655178493829	20.603995049687036	-84.44249960652536	197.64976143756215	55.89602085123643
771	3.85	-85.21412484081358	566.793022556887	272.68748710319636	-137.90274549555934	412.4163907150592	20.636309967609133	-84.32845324529754	197.56927245205992	55.767290147623456
772	3.855	-85.21834080045831	566.8021216448719	272.6915655325476	-137.81453141743347	412.3699718060831	20.666645439580147	-84.21070605994991	197.49485565172128	55.646521665045405
773	3.86	-85.22267704903106	566.8105147711881	272.6958416015393	-137.7263224950931	412.32663552751455	20.694765772001382	-84.08955634664545	197.42712950734807	55.53438891870265
